<?xml version="1.0" standalone="no"?>
<!DOCTYPE svg PUBLIC "-//W3C//DTD SVG 20010904//EN"
 "http://www.w3.org/TR/2001/REC-SVG-20010904/DTD/svg10.dtd">
<svg version="1.0" xmlns="http://www.w3.org/2000/svg"
 width="260.000000pt" height="260.000000pt" viewBox="0 0 260.000000 260.000000"
 preserveAspectRatio="xMidYMid meet">
<metadata>
Created by potrace 1.14, written by Peter Selinger 2001-2017
</metadata>
<g transform="translate(0.000000,260.000000) scale(0.100000,-0.100000)"
fill="#000000" stroke="none">
<path d="M850 2459 c-19 -4 -53 -10 -74 -13 -22 -4 -45 -11 -53 -17 -7 -6 -13
-9 -13 -6 0 3 -39 -15 -87 -40 -218 -113 -297 -153 -308 -153 -7 0 -33 -18
-57 -40 -35 -31 -55 -61 -87 -135 -50 -112 -60 -166 -58 -296 2 -75 6 -101 19
-116 17 -18 24 -42 35 -118 4 -27 19 -54 47 -86 54 -61 106 -126 106 -133 0
-3 -9 -15 -21 -27 -27 -27 -20 -81 17 -136 24 -36 137 -133 155 -133 4 0 25
-12 46 -26 41 -28 92 -30 130 -6 27 17 38 11 60 -31 9 -18 30 -50 48 -72 35
-43 175 -308 175 -331 0 -7 -8 -18 -18 -23 -10 -6 -29 -26 -43 -45 -13 -19
-41 -45 -62 -57 -62 -34 -104 -76 -122 -121 -23 -58 -128 -161 -195 -191 -30
-13 -72 -43 -93 -66 l-38 -41 1121 0 1120 0 0 409 0 409 -67 17 c-38 10 -77
23 -88 30 -13 8 -48 11 -98 8 -65 -3 -82 -1 -105 15 -35 25 -61 33 -130 38
-94 8 -106 10 -128 22 -16 8 -32 8 -65 -2 -24 -7 -48 -12 -54 -11 -37 3 -108
31 -133 53 -17 15 -42 37 -56 49 -24 20 -26 27 -26 106 0 55 -8 119 -24 183
-13 54 -27 119 -30 144 -3 25 -8 56 -11 70 -4 14 -9 66 -11 115 -5 87 -19 149
-33 141 -3 -2 -15 0 -26 4 -13 5 -20 17 -21 41 -5 118 -15 154 -75 254 -60
102 -133 179 -202 213 -18 8 -54 32 -82 52 -82 60 -228 111 -285 99z"/>
</g>
</svg>
