<?xml version="1.0" standalone="no"?>
<!DOCTYPE svg PUBLIC "-//W3C//DTD SVG 20010904//EN"
 "http://www.w3.org/TR/2001/REC-SVG-20010904/DTD/svg10.dtd">
<svg version="1.0" xmlns="http://www.w3.org/2000/svg"
 width="1080.000000pt" height="1080.000000pt" viewBox="0 0 1080.000000 1080.000000"
 preserveAspectRatio="xMidYMid meet">
<metadata>
Created by potrace 1.14, written by Peter Selinger 2001-2017
</metadata>
<g transform="translate(0.000000,1080.000000) scale(0.100000,-0.100000)"
fill="#000000" stroke="none">
<path d="M0 9925 l0 -874 50 31 c42 26 63 32 128 36 43 2 96 -1 120 -7 50 -14
114 -68 133 -112 11 -28 10 -33 -7 -46 -29 -21 -106 -41 -272 -70 l-152 -27 0
-4428 0 -4428 5400 0 5400 0 0 1508 0 1507 -25 11 c-18 9 -25 9 -30 0 -3 -8
-7 -7 -11 2 -3 6 -12 12 -20 12 -8 0 -14 6 -14 13 0 9 -3 8 -9 -2 -7 -11 -10
-11 -15 0 -4 9 -8 10 -11 3 -3 -6 -17 -9 -32 -6 -18 3 -24 1 -19 -7 4 -6 3
-11 -3 -11 -5 0 -13 5 -16 10 -4 6 -11 8 -16 5 -5 -3 -6 0 -4 7 3 8 -3 23 -13
33 -10 11 -17 32 -15 47 1 16 -3 28 -10 28 -8 0 -8 3 -2 8 14 10 13 34 -3 50
-7 8 -9 24 -6 38 4 15 2 24 -6 24 -6 0 -8 -5 -4 -12 5 -8 2 -9 -9 -5 -22 8
-22 -1 0 -25 15 -17 15 -18 -5 -18 -12 0 -24 0 -27 0 -9 1 -35 -28 -35 -37 0
-4 -11 -20 -23 -33 -13 -14 -22 -35 -21 -45 7 -45 7 -61 0 -87 -4 -15 -14 -29
-23 -32 -9 -4 -12 -13 -8 -26 4 -12 2 -20 -5 -20 -6 0 -10 -10 -9 -22 5 -49
-22 -99 -34 -65 -2 6 -8 8 -13 4 -5 -4 -2 -12 6 -18 13 -8 13 -10 0 -19 -11
-7 -11 -10 -2 -10 7 0 11 -4 7 -10 -3 -5 -12 -7 -20 -3 -8 3 -15 0 -15 -6 0
-11 -80 -9 -100 4 -6 4 -9 14 -6 22 3 8 -1 28 -11 43 -14 24 -14 31 -4 44 8 9
9 16 4 16 -16 0 -6 77 27 210 17 69 40 166 52 215 11 50 28 113 38 140 56 158
72 203 86 232 7 17 14 35 14 40 0 11 83 158 189 334 91 151 132 196 189 205
l42 7 0 3248 0 3249 -5400 0 -5400 0 0 -875z m361 -1209 c-12 -13 -45 -36 -74
-52 -42 -23 -64 -29 -119 -29 -101 0 -108 18 -17 45 41 12 99 30 129 40 30 10
66 19 79 19 l24 1 -22 -24z m4309 -336 c0 -5 -5 -10 -11 -10 -6 0 -8 -9 -4
-21 5 -15 4 -19 -4 -15 -12 8 -51 -1 -51 -12 0 -4 9 -13 19 -19 16 -10 18 -9
14 6 -4 16 0 18 24 13 15 -2 33 -9 40 -14 14 -11 73 -17 73 -8 0 3 -6 12 -12
19 -11 10 -9 11 6 5 15 -6 17 -3 12 13 -9 27 29 62 47 44 10 -11 9 -13 -3 -9
-14 4 -40 -13 -40 -27 0 -4 9 -5 21 -2 16 4 19 2 15 -10 -5 -11 -2 -13 9 -9
10 3 14 2 9 -5 -3 -6 -17 -8 -31 -4 -18 4 -24 2 -20 -7 2 -7 12 -12 21 -10 10
2 23 -2 30 -8 8 -5 22 -7 32 -3 17 6 18 5 4 -12 -14 -17 -14 -17 7 -5 11 8 19
20 16 27 -4 9 5 13 28 12 28 0 31 -2 14 -9 l-20 -9 20 -1 c11 -2 24 -2 28 -1
13 2 3 -33 -13 -46 -10 -8 -11 -12 -3 -13 6 0 15 5 18 10 3 6 13 10 21 10 8 0
13 -4 9 -9 -3 -5 -1 -12 5 -16 5 -3 10 -2 10 3 0 6 7 13 16 16 8 3 12 2 9 -4
-3 -6 -1 -10 4 -10 21 0 10 -20 -14 -26 -34 -8 -32 -23 2 -16 22 4 25 2 20
-14 -7 -18 -6 -18 7 -1 9 12 16 15 21 7 5 -8 11 -7 23 2 14 11 15 10 8 -7 -5
-14 -4 -17 4 -9 7 7 6 21 -5 48 -9 21 -14 40 -11 43 3 3 8 -6 12 -21 6 -25 14
-30 43 -27 7 2 10 -3 6 -9 -8 -13 34 -52 47 -44 6 4 8 -2 4 -14 -8 -25 13 -41
28 -20 15 20 44 19 51 -3 5 -14 13 -16 38 -12 33 5 33 5 32 -34 -1 -32 2 -39
18 -39 14 1 20 -7 23 -26 2 -19 -2 -28 -12 -28 -8 0 -14 -4 -14 -10 0 -5 5
-10 12 -10 6 0 8 -3 4 -7 -4 -5 -15 1 -23 12 -12 15 -14 16 -10 3 3 -9 0 -22
-8 -28 -8 -6 -12 -17 -9 -25 3 -7 0 -16 -7 -21 -9 -5 -10 -2 -6 9 7 18 -8 24
-18 7 -3 -5 -18 -10 -33 -11 -15 0 -21 -3 -14 -6 17 -7 15 -23 -3 -23 -9 0
-12 -6 -8 -16 5 -13 2 -15 -17 -9 -19 6 -22 4 -16 -10 4 -12 -2 -25 -21 -41
-16 -13 -25 -24 -21 -24 4 0 -6 -13 -22 -28 -16 -16 -27 -32 -23 -35 3 -4 -4
-7 -16 -7 -13 0 -21 -5 -19 -12 5 -15 -44 -58 -66 -58 -9 0 -16 -4 -16 -9 0
-5 -10 -11 -22 -14 -12 -4 -19 -9 -16 -12 4 -4 -3 -18 -14 -31 -17 -18 -24
-21 -35 -12 -11 8 -12 7 -7 -6 7 -19 -7 -21 -25 -3 -10 9 -15 9 -18 0 -2 -7
-11 -9 -19 -6 -8 3 -14 0 -14 -7 0 -6 -4 -8 -10 -5 -5 3 -10 1 -10 -6 0 -7 -3
-9 -6 -6 -8 8 -44 -36 -44 -53 0 -10 -3 -10 -15 0 -10 9 -15 9 -15 1 0 -6 -10
-11 -23 -11 -13 0 -27 -4 -33 -9 -14 -13 -67 -24 -60 -12 13 20 -14 21 -34 1
-21 -21 -40 -26 -40 -11 0 12 -42 1 -59 -17 -11 -10 -16 -11 -21 -1 -6 8 -14
6 -31 -10 -12 -11 -32 -21 -43 -21 -12 0 -33 -6 -48 -14 -20 -10 -29 -11 -38
-2 -8 8 -9 6 -4 -8 6 -16 4 -18 -14 -14 -12 4 -26 0 -33 -8 -6 -8 -15 -11 -20
-8 -5 3 -9 1 -9 -5 0 -6 -7 -8 -15 -5 -8 4 -15 2 -15 -4 0 -5 -11 -8 -25 -6
-14 1 -32 -4 -40 -12 -8 -9 -16 -10 -20 -4 -4 7 -14 6 -28 -2 -12 -7 -28 -11
-36 -9 -9 2 -12 -3 -8 -13 5 -14 3 -15 -13 -6 -11 6 -21 6 -24 1 -4 -5 0 -12
6 -14 10 -4 10 -6 0 -6 -7 -1 -15 6 -18 14 -8 20 -21 19 -46 -5 -15 -14 -25
-17 -39 -10 -11 7 -20 7 -24 0 -3 -5 -15 -10 -25 -10 -10 0 -27 -11 -37 -24
-15 -18 -26 -22 -51 -18 -18 2 -35 8 -38 13 -8 14 -24 10 -24 -6 0 -12 -4 -11
-20 5 -11 11 -20 25 -20 30 0 12 -3 12 -24 4 -9 -3 -16 -13 -16 -22 0 -12 -3
-13 -11 -5 -8 8 -8 17 1 32 6 12 9 27 7 34 -2 7 6 26 19 43 17 23 20 34 11 43
-8 8 -8 11 1 11 6 0 9 7 5 16 -5 15 -7 15 -15 0 -10 -18 -28 -22 -28 -5 0 14
20 33 45 43 16 7 17 9 5 13 -8 3 -22 7 -30 11 -8 3 -22 6 -30 7 -11 0 -14 10
-13 34 2 30 1 31 -11 16 -9 -13 -15 -15 -20 -6 -4 6 -11 9 -16 6 -5 -3 -14 4
-20 15 -11 20 3 30 15 10 15 -24 22 -7 10 27 -11 30 -10 39 1 51 8 7 14 23 14
35 0 20 2 19 19 -8 19 -29 19 -30 0 -44 -25 -18 -24 -47 1 -54 11 -3 18 -1 14
4 -3 5 0 9 5 9 6 0 19 7 30 16 15 14 17 21 9 39 -8 17 -6 29 7 48 9 14 15 34
12 44 -4 14 -5 13 -6 -4 0 -13 -6 -23 -11 -23 -6 0 -15 -10 -20 -22 -8 -22 -9
-22 -9 4 -1 14 3 28 8 30 5 2 12 17 15 35 6 25 3 36 -14 53 -12 12 -19 25 -15
28 3 4 10 0 15 -7 7 -12 11 -11 25 2 9 10 22 17 28 17 7 1 1 7 -13 15 -26 14
-35 51 -18 72 7 9 1 11 -26 6 -22 -3 -36 -2 -36 5 0 5 7 9 16 8 9 0 19 5 21
12 3 7 -3 12 -14 12 -15 0 -15 3 6 19 14 11 33 16 45 13 19 -5 19 -4 7 11 -7
9 -25 17 -40 17 -15 0 -34 9 -43 20 -16 18 -16 20 3 34 21 14 18 43 -3 30 -6
-4 -6 1 1 14 13 25 14 43 1 22 -5 -8 -12 -11 -16 -7 -4 4 2 21 14 37 12 16 22
37 22 47 1 23 23 53 41 54 8 0 4 4 -7 9 -24 9 -43 8 -61 -3 -7 -5 -13 -4 -13
1 0 21 26 28 68 20 32 -7 42 -14 42 -29 0 -11 7 -19 18 -19 14 0 15 2 2 10
-12 8 -10 10 10 11 22 0 23 1 6 8 -19 7 -18 8 5 16 13 4 29 9 34 10 6 2 12 4
15 5 7 4 51 11 85 15 17 1 35 4 40 5 23 7 32 8 63 9 18 0 31 5 28 9 -6 10 -36
9 -54 -2 -20 -12 -14 12 10 36 16 16 20 17 15 5 -4 -10 -1 -17 6 -18 64 -6 77
-5 77 2 0 5 5 9 11 9 6 0 9 -9 6 -20 -3 -11 -1 -20 4 -20 5 0 9 7 9 15 0 8 5
15 10 15 6 0 10 -6 10 -14 0 -8 6 -17 13 -19 7 -3 5 -6 -5 -6 -10 -1 -18 -6
-18 -12 0 -6 7 -8 16 -5 9 3 19 6 23 6 4 0 7 8 7 19 0 11 -5 17 -13 14 -17 -7
-16 7 3 32 13 17 16 18 24 5 7 -11 10 -11 10 -2 0 7 4 11 10 7 5 -3 7 -12 4
-19 -9 -23 17 -30 34 -10 16 17 16 17 -1 5 -20 -15 -37 -7 -20 10 12 12 63 20
63 9 0 -4 -7 -13 -15 -20 -9 -7 -13 -15 -10 -18 3 -3 19 7 35 23 34 33 41 21
9 -14 l-22 -23 24 7 c13 4 26 12 28 17 1 5 12 2 22 -8 22 -20 26 -9 4 12 -20
21 -19 29 5 31 14 1 20 -4 20 -18 0 -10 7 -19 15 -19 8 0 15 3 15 8 0 4 25 8
56 9 31 2 62 7 69 13 9 7 16 6 25 -5 7 -9 18 -14 24 -12 6 2 22 8 36 12 24 7
24 7 5 -9 -23 -18 -17 -20 21 -6 15 6 24 13 21 16 -8 8 15 33 31 34 6 0 12 -4
12 -10z m70 -21 c0 -5 -5 -7 -10 -4 -7 4 -9 -2 -4 -19 4 -16 2 -26 -5 -26 -6
0 -11 10 -11 21 0 17 -3 19 -13 10 -14 -11 -27 -5 -27 11 0 5 4 7 9 3 5 -3 12
-1 16 5 8 13 45 13 45 -1z m-876 -31 c5 -10 7 -10 12 0 3 6 13 12 22 12 13 0
11 -4 -6 -16 -20 -14 -24 -14 -44 0 -17 12 -19 16 -6 16 9 0 19 -6 22 -12z
m1005 -19 c-24 -15 -29 -10 -11 11 10 12 18 16 21 9 2 -6 -3 -15 -10 -20z
m-1314 -58 c-3 -6 -11 -11 -16 -11 -5 0 -4 6 3 14 14 16 24 13 13 -3z m-34
-48 c-12 -20 -14 -14 -5 12 4 9 9 14 11 11 3 -2 0 -13 -6 -23z m1569 -6 c0 -5
-4 -5 -10 -2 -5 3 -10 14 -10 23 0 15 2 15 10 2 5 -8 10 -19 10 -23z m-1496
-10 c-3 -9 -11 -17 -16 -17 -6 0 -7 7 -4 16 3 9 6 21 6 27 0 8 3 8 10 1 6 -6
8 -18 4 -27z m1636 -12 c7 -9 10 -19 6 -22 -4 -4 -11 -1 -15 6 -5 7 -14 10
-20 7 -12 -8 -15 6 -4 17 10 11 19 8 33 -8z m80 -45 c0 -5 -2 -10 -4 -10 -3 0
-8 5 -11 10 -3 6 -1 10 4 10 6 0 11 -4 11 -10z m-1707 -154 c4 -10 1 -13 -9
-9 -7 3 -14 9 -14 14 0 14 17 10 23 -5z m-65 -12 c12 -4 22 -10 22 -14 0 -13
-49 -8 -54 6 -6 15 -1 17 32 8z m-2143 -130 c18 -37 14 -79 -12 -154 -19 -52
-65 -96 -131 -126 -39 -17 -54 -19 -90 -10 -46 10 -75 42 -51 56 6 5 13 21 15
37 2 23 1 25 -7 10 -6 -9 -7 -22 -4 -27 3 -6 1 -10 -5 -10 -7 0 -10 12 -9 28
2 15 0 33 -4 39 -22 36 9 146 51 180 25 21 132 -9 132 -37 1 -12 3 -11 14 3 8
10 23 19 34 20 17 1 20 6 15 32 -6 30 -6 30 15 12 11 -11 28 -34 37 -53z
m2185 30 c0 -2 -9 -4 -21 -4 -11 0 -18 4 -14 10 5 8 35 3 35 -6z m-50 -30 c0
-8 -19 -13 -24 -6 -3 5 1 9 9 9 8 0 15 -2 15 -3z m120 -24 c0 -5 -4 -10 -10
-10 -5 0 -10 5 -10 10 0 6 5 10 10 10 6 0 10 -4 10 -10z m-64 -37 c-11 -11
-19 6 -11 24 8 17 8 17 12 0 3 -10 2 -21 -1 -24z m1 -61 c18 -18 17 -43 -2
-36 -8 4 -15 12 -15 19 0 7 -5 15 -12 17 -7 3 -9 11 -4 24 7 15 9 16 14 4 3
-8 11 -21 19 -28z m2553 -97 c0 -10 -54 -26 -69 -20 -13 5 -14 7 -1 15 16 10
70 14 70 5z m-260 -15 c0 -13 -28 -25 -38 -16 -3 4 0 11 8 16 20 13 30 12 30
0z m-2350 -50 c0 -5 -2 -10 -4 -10 -3 0 -8 5 -11 10 -3 6 -1 10 4 10 6 0 11
-4 11 -10z m80 6 c0 -11 -19 -15 -25 -6 -3 5 1 10 9 10 9 0 16 -2 16 -4z
m2037 -22 c-9 -9 -28 6 -21 18 4 6 10 6 17 -1 6 -6 8 -13 4 -17z m-767 -44 c0
-5 -4 -10 -10 -10 -5 0 -10 5 -10 10 0 6 5 10 10 10 6 0 10 -4 10 -10z m-4245
-93 c-16 -50 -40 -87 -56 -87 -4 0 3 19 16 43 13 23 29 62 36 87 9 28 15 38
17 27 2 -10 -4 -42 -13 -70z m2919 48 c3 -8 1 -15 -4 -15 -6 0 -10 7 -10 15 0
8 2 15 4 15 2 0 6 -7 10 -15z m2146 5 c0 -5 -7 -10 -16 -10 -8 0 -12 5 -9 10
3 6 10 10 16 10 5 0 9 -4 9 -10z m-170 -50 c0 -5 -5 -10 -11 -10 -5 0 -7 5 -4
10 3 6 8 10 11 10 2 0 4 -4 4 -10z m62 -35 l-3 -38 41 7 c27 4 39 3 35 -4 -4
-6 7 -10 26 -10 26 0 30 3 21 12 -14 14 -16 28 -3 28 5 0 12 -11 15 -24 5 -21
11 -24 43 -21 48 5 58 -3 37 -26 -16 -18 -16 -19 3 -19 23 0 33 -18 33 -59 l0
-28 -97 3 c-128 3 -123 2 -123 19 0 12 -16 15 -77 16 -64 1 -73 2 -48 10 17 5
42 7 57 5 15 -3 30 -1 33 4 3 6 -3 10 -15 10 -13 0 -20 5 -17 13 3 8 25 11 76
9 45 -2 71 1 71 8 0 5 -23 10 -52 10 -29 0 -73 7 -98 14 -43 14 -40 20 8 16
21 -1 23 2 17 21 -4 13 -14 30 -23 38 -13 13 -12 16 4 22 31 12 39 4 36 -36z
m81 4 c-4 -16 -8 -17 -14 -7 -13 19 -11 28 5 28 9 0 12 -7 9 -21z m72 11 c3
-5 -3 -10 -14 -10 -12 0 -21 5 -21 10 0 6 6 10 14 10 8 0 18 -4 21 -10z m95
-44 c0 -3 -4 -8 -10 -11 -5 -3 -10 -1 -10 4 0 6 5 11 10 11 6 0 10 -2 10 -4z
m-1940 -124 c0 -5 -11 -18 -24 -29 -25 -22 -51 -16 -40 10 5 14 14 18 57 26 4
0 7 -3 7 -7z m-232 -20 c6 -18 -15 -14 -22 4 -4 10 -1 14 6 12 6 -2 14 -10 16
-16z m1462 -149 c0 -8 4 -12 9 -9 4 3 7 -6 5 -19 -1 -14 2 -25 8 -25 7 0 7 -5
-1 -13 -6 -8 -8 -16 -5 -20 3 -3 -16 -15 -43 -27 -46 -21 -67 -21 -107 -5 -14
6 -17 5 -12 -3 4 -7 2 -12 -3 -12 -6 0 -11 8 -12 18 -1 9 -2 32 -4 50 -2 22 2
35 12 39 8 3 12 11 10 17 -3 7 3 12 13 12 10 0 18 -4 17 -9 -5 -23 23 -16 29
7 7 28 19 34 27 14 3 -7 6 -3 6 10 1 22 2 22 26 6 14 -9 25 -23 25 -31z m-990
-52 c0 -15 -19 -23 -63 -27 -49 -3 -62 3 -46 22 13 16 109 20 109 5z m-135
-11 c-3 -5 -10 -10 -16 -10 -5 0 -9 5 -9 10 0 6 7 10 16 10 8 0 12 -4 9 -10z
m390 0 c-28 -12 -37 -12 -30 0 3 6 16 10 28 9 21 0 21 -1 2 -9z m-370 -130
c-3 -5 -10 -10 -16 -10 -5 0 -9 5 -9 10 0 6 7 10 16 10 8 0 12 -4 9 -10z
m1186 -24 c-9 -11 -6 -13 15 -10 28 3 63 -25 56 -44 -2 -8 3 -10 15 -5 15 6
16 4 5 -9 -10 -12 -10 -18 2 -28 9 -6 20 -9 26 -5 5 3 10 0 10 -9 0 -8 4 -16
9 -18 13 -5 24 -48 12 -48 -6 0 -11 -4 -11 -10 0 -5 3 -9 8 -8 18 4 62 -16 62
-28 0 -8 5 -14 10 -14 6 0 8 -11 4 -27 -4 -16 -3 -25 1 -21 4 4 16 3 27 -3 15
-8 17 -13 7 -25 -9 -11 -9 -17 1 -29 7 -8 17 -15 22 -15 5 0 30 -16 55 -35 25
-19 52 -35 59 -35 8 0 14 -5 14 -11 0 -6 -6 -9 -13 -6 -7 3 -13 -3 -13 -13 0
-10 4 -16 8 -14 4 3 8 0 8 -5 0 -6 -4 -11 -9 -11 -18 0 -8 -77 12 -90 16 -10
18 -9 13 8 -8 25 21 53 34 32 5 -8 13 -11 17 -6 4 4 0 13 -10 20 -25 19 -22
37 5 27 15 -5 22 -17 23 -37 1 -17 5 -35 9 -42 4 -7 3 -12 -2 -12 -6 0 -10 -6
-9 -12 1 -43 -4 -57 -19 -51 -20 8 -36 -17 -22 -34 7 -9 7 -13 -1 -13 -6 0
-13 -11 -17 -25 -6 -25 -34 -56 -34 -37 0 6 6 13 13 15 7 4 6 6 -4 6 -9 1 -20
-6 -23 -15 -4 -10 -13 -13 -26 -9 -14 5 -20 2 -20 -9 0 -10 -9 -16 -22 -16
-12 0 -18 -3 -15 -7 4 -3 -5 -12 -20 -20 -21 -11 -28 -11 -35 -1 -6 10 -12 9
-22 -5 -17 -22 -51 -15 -77 14 -10 12 -23 16 -37 12 -18 -4 -22 -1 -22 21 0
14 6 26 13 27 10 0 10 2 0 6 -7 2 -13 12 -13 21 0 13 -2 14 -9 4 -6 -10 -10
-3 -15 22 -4 20 -12 35 -19 33 -7 -1 -11 4 -9 12 2 8 -3 11 -13 8 -8 -4 -15
-1 -15 6 0 7 -9 20 -20 30 -16 13 -18 21 -10 42 6 17 6 25 -1 25 -6 0 -8 9 -4
19 3 11 1 22 -5 26 -6 3 -7 11 -4 17 4 6 10 5 16 -3 7 -11 8 -9 4 4 -3 10 -1
27 4 38 9 15 7 19 -7 19 -10 0 -24 9 -31 20 -7 12 -8 20 -2 20 5 0 10 8 10 17
0 13 -3 14 -12 5 -19 -19 -30 -14 -23 9 5 13 3 19 -3 15 -12 -7 -35 18 -25 27
3 4 1 7 -5 7 -7 0 -12 5 -12 11 0 6 9 8 23 4 20 -5 20 -5 5 8 -9 7 -20 28 -23
45 -3 17 -10 43 -15 57 -17 45 -13 73 13 77 25 3 21 23 -5 22 -10 0 -18 5 -18
13 0 7 5 13 12 13 6 0 21 9 32 19 19 18 72 38 105 40 10 1 11 -2 2 -13z
m-1041 -6 c0 -5 -4 -10 -10 -10 -5 0 -10 5 -10 10 0 6 5 10 10 10 6 0 10 -4
10 -10z m1964 -15 c-7 -16 -24 -21 -24 -6 0 8 7 13 27 20 1 1 0 -6 -3 -14z
m-2149 -35 c4 -6 2 -17 -5 -24 -18 -22 -21 -56 -4 -56 13 0 19 13 15 34 -4 20
12 47 25 42 7 -3 16 -1 19 4 7 11 58 13 93 4 33 -9 27 -27 -9 -22 -25 4 -33 0
-45 -24 -19 -37 -6 -37 72 -1 33 15 64 29 69 32 6 2 2 -5 -8 -17 -11 -11 -16
-25 -13 -30 3 -5 -7 -8 -22 -6 l-27 4 25 -9 c14 -5 43 -9 64 -10 l40 -1 -22
-21 c-21 -18 -22 -46 -2 -34 5 3 11 1 15 -5 7 -12 -38 -24 -65 -17 -15 4 -20
0 -20 -15 0 -11 -6 -25 -13 -33 -17 -16 -67 -8 -67 11 0 8 -9 14 -20 14 -11 0
-19 6 -17 13 2 11 -5 13 -63 16 l-25 1 25 20 c27 20 25 22 -33 34 -15 4 -25
11 -22 16 3 6 -3 10 -13 10 -16 0 -20 7 -20 34 0 28 4 36 22 39 38 8 45 7 51
-3z m2120 -12 c-6 -21 -5 -22 8 -5 22 27 26 20 8 -18 -15 -33 -39 -51 -28 -20
5 12 2 12 -18 3 -14 -6 -25 -15 -25 -20 0 -4 -5 -8 -11 -8 -8 0 -9 4 0 13 6 8
8 17 4 21 -4 4 1 4 12 0 11 -4 17 -4 14 0 -6 6 29 55 39 56 2 0 1 -10 -3 -22z
m125 -4 c0 -8 -4 -12 -10 -9 -5 3 -10 -3 -10 -15 0 -15 -5 -20 -17 -18 -27 5
-25 22 5 40 15 9 28 17 30 17 1 1 2 -6 2 -15z m118 -13 c-7 -9 -13 -17 -14
-19 -1 -2 -4 8 -6 21 -4 20 -1 23 14 19 15 -4 16 -7 6 -21z m-44 -5 c-3 -9
-10 -16 -15 -16 -5 0 -9 -4 -9 -10 0 -14 27 -12 33 3 4 9 6 9 6 0 1 -7 -8 -18
-19 -25 -11 -7 -20 -22 -20 -33 0 -15 -2 -17 -9 -6 -7 10 -16 7 -41 -18 -18
-17 -28 -31 -21 -31 6 0 11 -5 11 -11 0 -6 -7 -9 -15 -5 -8 3 -15 1 -15 -4 0
-6 5 -10 11 -10 5 0 8 -4 5 -9 -9 -13 -46 -1 -46 15 0 8 -7 14 -15 14 -8 0
-15 -4 -15 -10 0 -5 -6 -10 -14 -10 -8 0 -18 -5 -22 -12 -5 -7 -2 -9 9 -5 8 3
18 0 21 -8 3 -10 0 -12 -11 -8 -11 4 -14 2 -11 -8 3 -8 -1 -19 -8 -26 -16 -17
-29 -17 -17 0 17 22 10 52 -12 49 -12 -2 -16 0 -9 5 19 14 25 43 9 43 -8 0
-15 -7 -15 -16 0 -9 -6 -14 -12 -11 -7 2 -12 10 -10 16 3 14 -15 15 -23 1 -11
-18 -35 -11 -45 13 -5 12 -9 18 -10 12 0 -5 -5 -3 -10 5 -8 13 -10 13 -10 1 0
-11 -4 -10 -14 4 -7 10 -11 27 -8 37 4 16 6 17 16 3 9 -12 18 -13 44 -6 25 8
32 7 32 -5 0 -8 9 -14 20 -14 11 0 20 -7 20 -15 0 -8 4 -15 8 -15 13 0 7 43
-6 48 -7 2 -12 9 -12 15 0 8 4 7 12 -1 7 -7 18 -12 26 -12 12 0 12 3 2 15 -9
10 -9 15 -1 15 11 0 14 -9 14 -42 0 -14 5 -16 23 -12 19 5 23 3 18 -9 -3 -8
-1 -18 5 -22 7 -3 11 2 11 14 0 14 6 21 19 21 10 0 19 6 18 13 -1 34 5 47 21
47 10 0 23 5 29 11 9 9 11 7 7 -8 -3 -12 -14 -25 -25 -29 -14 -7 -16 -13 -8
-24 8 -11 12 -12 16 -2 2 6 12 12 20 12 10 0 13 6 9 16 -5 12 -1 14 16 8 17
-5 20 -3 15 11 -4 9 1 26 11 40 19 26 26 26 16 1z m-167 -52 c1 -36 -1 -43
-12 -34 -11 10 -11 28 1 68 6 22 10 13 11 -34z m-2337 32 c0 -3 -4 -8 -10 -11
-5 -3 -10 -1 -10 4 0 6 5 11 10 11 6 0 10 -2 10 -4z m105 -36 c-3 -5 -10 -10
-16 -10 -5 0 -9 5 -9 10 0 6 7 10 16 10 8 0 12 -4 9 -10z m2545 -17 c-11 -15
-40 -43 -63 -62 -32 -26 -28 -20 18 27 64 66 79 78 45 35z m-130 -14 c0 -5 -4
-9 -10 -9 -5 0 -10 7 -10 16 0 8 5 12 10 9 6 -3 10 -10 10 -16z m-2450 -38 c0
-13 -60 -32 -73 -24 -6 4 5 12 24 19 43 16 49 16 49 5z m2380 -1 c0 -5 -5 -10
-11 -10 -5 0 -7 5 -4 10 3 6 8 10 11 10 2 0 4 -4 4 -10z m36 -17 c0 -12 -9
-19 -28 -20 -15 -1 -28 2 -28 8 0 6 4 8 9 4 6 -3 16 1 23 9 17 20 24 20 24 -1z
m-2246 -2 c0 -9 -98 -23 -111 -15 -24 14 -3 24 51 24 33 0 60 -4 60 -9z m1985
-22 c11 -17 -1 -21 -15 -4 -8 9 -8 15 -2 15 6 0 14 -5 17 -11z m294 -20 c-13
-10 -26 -16 -28 -13 -7 7 33 42 43 36 5 -3 -2 -13 -15 -23z m-156 -33 c4 -10
1 -13 -8 -9 -8 3 -12 9 -9 14 7 12 11 11 17 -5z m37 -6 c0 -5 -5 -10 -11 -10
-5 0 -7 5 -4 10 3 6 8 10 11 10 2 0 4 -4 4 -10z m57 4 c-3 -3 -12 -4 -19 -1
-8 3 -5 6 6 6 11 1 17 -2 13 -5z m-757 -24 c0 -5 -4 -10 -9 -10 -6 0 -13 5
-16 10 -3 6 1 10 9 10 9 0 16 -4 16 -10z m645 -15 c-42 -14 -82 -19 -73 -9 4
3 21 8 40 11 18 3 35 7 37 9 2 2 11 4 20 3 9 -1 -2 -7 -24 -14z m-2145 -14 c0
-12 -20 -25 -27 -18 -7 7 6 27 18 27 5 0 9 -4 9 -9z m883 -66 c4 -8 2 -17 -3
-20 -6 -4 -10 3 -10 14 0 25 6 27 13 6z m1497 -13 c12 -13 11 -17 -6 -31 -27
-22 -25 -55 4 -59 12 -2 22 -8 22 -14 0 -5 -7 -7 -16 -4 -9 3 -24 6 -35 6 -11
0 -19 7 -19 18 0 14 -2 15 -10 2 -16 -25 -11 -40 14 -40 14 0 28 -5 31 -11 4
-6 14 -8 22 -5 8 3 11 1 8 -5 -4 -5 -15 -7 -24 -4 -10 3 -29 1 -42 -4 l-24
-10 28 0 c15 -1 27 -6 27 -12 0 -5 -5 -7 -11 -4 -6 4 -20 -3 -31 -15 -11 -12
-27 -19 -35 -16 -8 3 -19 6 -24 6 -5 0 -9 7 -9 15 0 8 -4 15 -10 15 -5 0 -10
-5 -10 -11 0 -6 -7 -3 -16 5 -17 18 -28 21 -19 6 7 -11 -8 -14 -19 -3 -11 11
-40 13 -52 2 -8 -7 -14 -6 -17 3 -4 11 -9 11 -27 0 -25 -15 -30 -13 -33 16 -1
15 -5 18 -13 11 -8 -6 -17 -2 -28 15 -20 32 -20 38 2 34 11 -2 16 3 14 13 -2
13 13 25 62 47 5 3 6 0 2 -7 -4 -6 -2 -11 3 -11 6 0 11 5 11 11 0 6 8 8 19 4
11 -3 22 -1 26 5 3 5 -2 10 -12 10 -15 0 -16 2 -3 10 19 12 43 13 35 1 -3 -5
-1 -12 5 -16 5 -3 10 1 10 9 0 9 5 16 11 16 6 0 9 -7 5 -15 -8 -22 21 -19 35
3 12 20 62 19 88 -2 11 -9 13 -7 7 9 -5 17 -2 21 17 21 12 0 29 -6 37 -14z
m-730 -16 c0 -3 -4 -8 -10 -11 -5 -3 -10 -1 -10 4 0 6 5 11 10 11 6 0 10 -2
10 -4z m748 -28 c-2 -6 -10 -14 -16 -16 -7 -2 -10 2 -6 12 7 18 28 22 22 4z
m-778 -44 c0 -8 -4 -14 -8 -14 -4 0 -8 9 -8 19 0 11 4 17 8 15 4 -3 8 -12 8
-20z m815 16 c3 -5 -1 -10 -9 -10 -9 0 -16 5 -16 10 0 6 4 10 9 10 6 0 13 -4
16 -10z m-1760 -17 c10 -13 10 -19 -1 -30 -27 -27 -51 -4 -30 30 13 21 16 21
31 0z m-70 -42 c-6 -21 -25 -29 -25 -11 0 6 5 10 11 10 8 0 9 4 0 13 -12 16
-2 32 12 18 5 -5 6 -18 2 -30z m102 -19 c-15 -16 -15 -21 -3 -38 8 -10 20 -19
27 -19 7 0 14 -6 17 -13 3 -11 0 -12 -16 -3 -11 6 -29 8 -39 5 -15 -5 -15 -4
-3 5 13 9 13 11 -2 11 -10 0 -18 5 -18 10 0 6 -5 10 -10 10 -6 0 -8 -11 -3
-27 4 -16 7 -36 7 -45 0 -10 6 -18 14 -18 7 0 10 5 6 12 -5 8 0 9 17 5 13 -4
27 -7 32 -7 11 0 9 -68 -3 -75 -5 -3 -10 -12 -10 -18 1 -8 5 -6 13 3 7 9 20
14 29 12 9 -2 26 6 37 17 12 12 21 17 21 12 0 -16 -153 -166 -185 -182 -16 -9
-39 -20 -50 -27 -47 -26 -160 -63 -208 -68 -51 -5 -52 -5 -25 11 18 10 25 21
21 31 -4 11 -9 12 -16 5 -17 -17 -30 -13 -24 9 3 11 2 20 -3 20 -4 0 -10 -8
-13 -18 -2 -11 -15 -22 -28 -25 -20 -5 -22 -4 -8 6 9 7 14 17 12 24 -2 6 9 19
25 27 40 21 65 59 49 76 -9 10 -9 14 1 17 6 3 12 13 12 23 0 10 5 22 12 26 7
5 9 2 5 -8 -4 -12 1 -15 19 -14 28 1 38 20 24 46 -16 29 -13 45 5 30 14 -12
16 -10 14 7 -1 10 30 25 41 18 5 -3 7 0 4 8 -3 10 4 17 20 21 14 3 26 11 26
17 0 6 -9 9 -20 6 -11 -3 -22 -2 -24 2 -3 4 7 8 20 9 33 3 73 24 56 30 -7 2
-19 -1 -26 -8 -10 -7 -16 -8 -21 0 -3 5 1 10 10 10 12 0 15 5 11 16 -5 13 -3
14 6 7 9 -7 21 -7 38 0 14 5 35 11 48 12 12 1 25 5 29 8 3 4 15 7 26 7 19 0
19 -1 4 -18z m1046 -22 c3 -12 0 -20 -8 -20 -8 0 -11 8 -8 20 3 11 7 20 8 20
1 0 5 -9 8 -20z m-553 -130 c0 -5 -2 -10 -4 -10 -3 0 -8 5 -11 10 -3 6 -1 10
4 10 6 0 11 -4 11 -10z m-529 -220 c-69 -66 -102 -83 -116 -61 -3 5 21 24 54
41 32 17 74 44 92 60 62 53 45 31 -30 -40z m-353 -65 c-3 -3 -9 2 -12 12 -6
14 -5 15 5 6 7 -7 10 -15 7 -18z m-503 5 c3 -5 1 -10 -4 -10 -6 0 -11 5 -11
10 0 6 2 10 4 10 3 0 8 -4 11 -10z m43 -24 c0 -22 -2 -23 -15 -11 -8 8 -11 19
-8 25 11 18 23 11 23 -14z m169 10 c0 -8 -6 -12 -14 -9 -7 3 -10 9 -7 14 8 14
21 11 21 -5z m256 7 c-7 -2 -19 -2 -25 0 -7 3 -2 5 12 5 14 0 19 -2 13 -5z
m274 -9 c8 -21 -22 -45 -45 -37 -12 5 -14 2 -9 -11 5 -13 -1 -20 -26 -31 -18
-7 -39 -25 -46 -38 -11 -20 -20 -24 -42 -22 -16 2 -34 7 -39 10 -6 3 -10 1
-10 -4 0 -6 9 -11 20 -11 11 0 20 -4 20 -10 0 -5 -5 -10 -11 -10 -5 0 -7 -5
-4 -10 3 -6 0 -13 -9 -16 -8 -3 -12 -12 -10 -19 3 -7 -4 -16 -15 -20 -12 -3
-21 -11 -21 -16 0 -6 -5 -7 -11 -3 -6 3 -15 0 -20 -7 -8 -12 -11 -12 -19 1 -6
9 -10 10 -10 3 0 -6 4 -14 9 -17 12 -8 1 -56 -13 -56 -7 0 -17 5 -23 11 -9 9
-18 8 -37 -5 -14 -9 -28 -16 -31 -16 -13 0 -3 38 15 57 15 17 17 23 6 32 -7 6
-16 8 -19 4 -4 -3 -7 6 -7 20 0 15 -5 27 -11 27 -5 0 -7 5 -4 10 3 6 13 10 21
10 17 0 45 24 43 37 -3 20 2 27 11 13 8 -13 10 -13 10 2 0 9 9 20 20 23 20 6
29 45 9 45 -5 0 -8 4 -5 8 3 5 29 9 58 11 57 2 183 28 208 42 23 13 40 11 47
-7z m183 0 c0 -8 -5 -24 -10 -34 -8 -16 -8 -18 5 -14 8 4 15 1 15 -5 0 -6 -5
-11 -11 -11 -6 0 -8 -9 -4 -21 4 -13 0 -26 -12 -37 -10 -10 -24 -28 -32 -42
-13 -24 -13 -24 4 -10 17 14 17 13 10 -10 -5 -14 -8 -30 -8 -37 0 -7 -5 -11
-10 -10 -5 1 -12 -4 -14 -10 -3 -8 3 -13 14 -13 14 0 15 -2 4 -9 -8 -5 -20 -7
-28 -4 -9 3 -11 0 -7 -10 6 -16 -28 -57 -47 -57 -5 0 -8 -4 -5 -9 3 -5 -1 -15
-10 -22 -8 -7 -14 -8 -12 -3 5 16 -16 17 -26 1 -8 -12 -6 -20 8 -30 18 -13 18
-14 -7 -21 -16 -4 -27 -13 -27 -23 0 -23 -23 -1 -27 27 -3 22 13 28 20 8 2 -7
8 -10 12 -5 8 7 -22 36 -38 37 -14 0 -20 -32 -7 -40 16 -10 -26 -41 -46 -33
-22 8 -16 26 6 20 12 -3 18 -1 14 5 -3 5 -15 8 -25 5 -10 -3 -20 0 -23 7 -3 6
-3 0 0 -13 4 -16 3 -21 -5 -17 -6 4 -11 15 -12 24 0 13 -3 12 -11 -5 -6 -13
-16 -23 -22 -23 -6 0 -21 -3 -33 -6 -14 -4 -23 -2 -23 5 0 7 5 9 10 6 6 -4 10
6 10 22 l0 28 -18 -22 c-12 -16 -24 -21 -41 -18 -28 5 -37 12 -27 22 4 4 11 1
15 -6 6 -8 11 -9 15 -3 10 16 -11 24 -49 18 -20 -4 -35 -2 -35 4 0 6 5 10 10
10 6 0 10 9 10 21 0 12 5 19 12 17 14 -5 58 30 58 46 0 6 22 27 50 46 27 19
49 38 50 43 0 4 4 7 10 7 5 0 31 14 57 30 26 17 55 30 66 30 10 0 15 5 12 10
-3 6 -2 10 3 10 4 0 17 8 28 18 29 25 61 42 80 42 11 0 14 5 10 16 -5 13 -2
15 14 11 19 -5 28 7 13 16 -5 2 -3 3 4 1 6 -1 19 6 29 17 21 23 34 24 34 3z
m-605 -24 c19 -8 19 -9 -2 -9 -12 -1 -25 4 -28 9 -7 12 2 12 30 0z m78 -17
c-7 -2 -19 -2 -25 0 -7 3 -2 5 12 5 14 0 19 -2 13 -5z m-243 -33 c0 -5 -4 -10
-10 -10 -5 0 -10 5 -10 10 0 6 5 10 10 10 6 0 10 -4 10 -10z m56 -33 c8 3 14
-1 14 -11 0 -9 -7 -16 -15 -16 -18 0 -20 -17 -3 -22 14 -5 3 -38 -12 -38 -6 0
-9 8 -6 18 3 9 1 24 -5 32 -9 13 -10 13 -5 -2 4 -14 -2 -16 -36 -15 -38 2 -41
4 -44 35 -2 18 1 32 7 32 5 0 7 -5 4 -10 -7 -11 18 -40 34 -40 6 0 19 16 29
37 14 30 18 33 20 15 2 -13 8 -19 18 -15z m104 29 c0 -2 -8 -10 -17 -17 -16
-13 -17 -12 -4 4 13 16 21 21 21 13z m-46 -14 c2 -4 -4 -8 -14 -8 -10 0 -16 4
-14 8 3 4 9 8 14 8 5 0 11 -4 14 -8z m693 -14 c-3 -8 -6 -5 -6 6 -1 11 2 17 5
13 3 -3 4 -12 1 -19z m-623 -12 c-6 -16 -24 -23 -24 -8 0 10 22 33 27 28 2 -2
1 -11 -3 -20z m27 -27 c-3 -4 -17 -9 -31 -13 -14 -3 -19 -3 -12 0 7 3 18 18
24 33 10 24 11 25 18 6 4 -11 5 -23 1 -26z m-111 21 c0 -5 -5 -10 -11 -10 -5
0 -7 5 -4 10 3 6 8 10 11 10 2 0 4 -4 4 -10z m-16 -36 c3 -9 3 -20 0 -26 -4
-6 2 -6 14 1 26 14 32 14 32 1 0 -5 -6 -9 -12 -7 -9 1 -12 -9 -11 -30 2 -36 2
-36 -21 -27 -13 5 -14 9 -5 20 8 9 8 18 2 27 -14 17 -23 57 -13 57 4 0 11 -7
14 -16z m-64 -54 c0 -5 -2 -10 -4 -10 -3 0 -8 5 -11 10 -3 6 -1 10 4 10 6 0
11 -4 11 -10z m137 -12 c-3 -8 -6 -5 -6 6 -1 11 2 17 5 13 3 -3 4 -12 1 -19z
m1553 -2 c0 -2 -7 -6 -15 -10 -8 -3 -15 -1 -15 4 0 6 7 10 15 10 8 0 15 -2 15
-4z m-188 -23 c12 -15 9 -16 -29 -11 -28 4 -41 2 -39 -6 2 -6 1 -8 -1 -3 -8
13 -23 8 -23 -8 0 -8 -5 -15 -11 -15 -12 0 -3 17 20 41 21 21 66 22 83 2z
m-1412 -35 c0 -10 2 -10 8 0 6 9 15 5 33 -15 13 -15 16 -21 7 -14 -10 7 -24
11 -31 8 -7 -3 -19 4 -25 14 -8 12 -8 19 -2 19 5 0 10 -6 10 -12z m1236 -54
c-3 -9 -6 -18 -6 -21 0 -3 -7 0 -15 7 -13 11 -13 15 -3 21 21 13 31 10 24 -7z
m-241 -74 c-3 -5 -10 -10 -16 -10 -5 0 -9 5 -9 10 0 6 7 10 16 10 8 0 12 -4 9
-10z m-660 -70 c-10 -11 -23 -20 -29 -20 -6 0 -4 5 4 10 8 5 11 10 5 10 -12 0
16 20 29 20 5 0 1 -9 -9 -20z m-45 -4 c0 -11 -19 -15 -25 -6 -3 5 1 10 9 10 9
0 16 -2 16 -4z m1380 -132 c0 -2 -12 -4 -27 -4 -21 0 -24 3 -14 9 13 8 41 5
41 -5z m-60 -38 c0 -3 -4 -8 -10 -11 -5 -3 -10 -1 -10 4 0 6 5 11 10 11 6 0
10 -2 10 -4z m2445 -386 c10 -16 -5 -50 -21 -50 -8 0 -14 5 -14 10 0 6 -5 10
-11 10 -5 0 -8 -4 -5 -9 7 -10 -16 -71 -26 -71 -23 0 -1 57 37 97 23 24 31 27
40 13z m704 4 c33 -7 37 -28 12 -58 -15 -18 -115 -23 -126 -6 -3 5 -12 7 -20
3 -8 -3 -15 0 -15 6 0 6 7 11 15 11 9 0 12 6 8 18 -5 14 -3 13 10 -3 10 -12
16 -15 17 -7 1 36 36 48 99 36z m-2849 -75 c0 -5 5 -7 11 -3 7 4 7 -2 -1 -17
-18 -34 -22 -37 -19 -14 2 11 0 26 -4 33 -5 7 -4 12 2 12 6 0 11 -5 11 -11z
m2630 -14 c0 -13 -4 -14 -22 -4 -34 17 -34 19 -5 19 18 0 27 -5 27 -15z m35 5
c3 -5 -1 -10 -9 -10 -9 0 -16 5 -16 10 0 6 4 10 9 10 6 0 13 -4 16 -10z
m-2925 -18 c0 -11 80 -43 91 -37 5 4 9 2 9 -3 0 -5 9 -12 20 -15 11 -3 20 -11
20 -17 0 -10 -3 -10 -15 0 -12 10 -15 10 -15 0 0 -10 -3 -10 -15 0 -12 10 -16
9 -21 -3 -3 -9 -11 -14 -17 -11 -7 2 -13 -6 -13 -21 -1 -14 3 -25 8 -25 6 0 0
-9 -13 -19 -15 -12 -28 -16 -33 -10 -6 5 -19 9 -30 9 -14 0 -17 3 -9 11 8 8
17 7 31 -2 27 -17 37 -7 22 20 -9 17 -15 19 -30 11 -14 -7 -20 -7 -20 0 0 5
-5 10 -11 10 -5 0 -7 -4 -4 -10 3 -5 -1 -10 -9 -10 -9 0 -16 -7 -16 -15 0 -8
5 -15 11 -15 19 0 3 -25 -17 -26 -44 -2 -52 -5 -58 -19 -4 -13 -2 -13 14 -5
21 11 57 14 47 3 -4 -3 -2 -12 4 -20 9 -10 7 -13 -10 -13 -13 0 -19 4 -16 11
5 7 -7 9 -35 5 -34 -4 -41 -2 -36 11 3 8 6 22 6 31 0 14 2 14 9 3 7 -10 13
-11 27 -2 17 9 17 10 2 11 -10 0 -18 5 -18 10 0 6 -7 10 -15 10 -10 0 -15 -10
-15 -30 0 -21 -5 -30 -16 -30 -10 0 -13 -6 -9 -19 7 -23 -15 -43 -35 -31 -12
8 -11 10 5 11 11 0 14 3 8 6 -7 2 -13 9 -13 14 0 6 4 8 8 5 4 -2 14 4 21 16
11 18 10 19 -11 12 -20 -6 -21 -5 -10 9 8 9 20 13 28 10 9 -3 12 0 9 9 -3 8 1
20 9 27 8 7 12 19 9 27 -4 10 3 14 24 14 26 0 63 28 63 47 0 4 12 17 28 30 27
22 52 30 52 15z m2440 -102 c0 -5 -5 -10 -11 -10 -5 0 -7 5 -4 10 3 6 8 10 11
10 2 0 4 -4 4 -10z m-2650 -46 c0 -2 -9 -4 -20 -4 -11 0 -20 4 -20 9 0 5 9 7
20 4 11 -3 20 -7 20 -9z m-106 -43 c3 -5 -1 -11 -9 -14 -9 -4 -12 -1 -8 9 6
16 10 17 17 5z m76 -26 c0 -13 -4 -14 -20 -5 -11 6 -20 13 -20 15 0 3 9 5 20
5 11 0 20 -7 20 -15z m2484 -356 c-9 -10 -24 -18 -33 -18 -13 1 -13 2 2 6 12
3 15 11 11 29 -6 24 11 35 19 12 2 -7 3 -4 1 8 -2 12 0 24 4 28 16 17 12 -47
-4 -65z m-169 -407 c-3 -3 -11 0 -18 7 -9 10 -8 11 6 5 10 -3 15 -9 12 -12z
m-1014 -509 c12 -15 12 -16 -3 -10 -11 4 -18 2 -18 -5 0 -6 -3 -9 -6 -5 -6 6
2 37 9 37 3 0 11 -8 18 -17z m-111 -53 c0 -5 -2 -10 -4 -10 -3 0 -8 5 -11 10
-3 6 -1 10 4 10 6 0 11 -4 11 -10z m52 -4 c6 4 5 -2 -1 -15 -15 -28 -19 -27
-18 7 0 15 2 21 4 14 3 -6 9 -9 15 -6z m-244 -21 c-3 -3 -9 2 -12 12 -6 14 -5
15 5 6 7 -7 10 -15 7 -18z m105 12 c16 -11 13 -12 -23 -13 -22 -1 -40 3 -40 8
0 5 4 7 9 3 5 -3 12 -1 16 5 8 13 18 13 38 -3z m-41 -23 c37 6 40 5 35 -14 -4
-15 0 -20 16 -21 16 -1 18 -2 5 -6 -10 -2 -15 -10 -11 -19 3 -8 1 -14 -5 -14
-6 0 -13 13 -17 29 -5 22 -11 28 -25 24 -11 -3 -25 -11 -31 -19 -13 -16 -49
-19 -49 -4 0 6 4 10 9 10 5 0 13 15 17 33 6 23 9 27 12 13 3 -15 10 -17 44
-12z m118 1 c-9 -11 -10 -15 -1 -15 8 0 7 -5 -3 -15 -20 -20 -26 -19 -26 5 0
10 8 24 18 29 24 14 26 13 12 -4z m-223 -11 c-3 -3 -12 -4 -19 -1 -8 3 -5 6 6
6 11 1 17 -2 13 -5z m3 -24 c0 -5 -10 -10 -22 -9 -22 0 -22 1 -3 9 11 5 21 9
23 9 1 1 2 -3 2 -9z m240 -4 c0 -3 -4 -8 -10 -11 -5 -3 -10 -1 -10 4 0 6 5 11
10 11 6 0 10 -2 10 -4z m97 -52 c3 2 -1 14 -7 26 -6 12 -9 24 -6 27 5 5 36
-62 36 -79 0 -5 -4 -6 -10 -3 -5 3 -10 -1 -10 -9 0 -9 -4 -16 -10 -16 -5 0
-10 -7 -10 -16 0 -25 -19 -6 -28 28 -4 18 -14 34 -21 36 -10 3 -11 0 -5 -9 7
-12 5 -12 -9 -1 -9 8 -21 11 -27 7 -5 -3 -10 -1 -10 4 0 6 17 21 38 35 l37 24
19 -30 c10 -16 21 -27 23 -24z m3998 26 c-3 -5 -11 -10 -16 -10 -6 0 -7 5 -4
10 3 6 11 10 16 10 6 0 7 -4 4 -10z m-3895 -70 c0 -5 -2 -10 -4 -10 -3 0 -8 5
-11 10 -3 6 -1 10 4 10 6 0 11 -4 11 -10z m-315 -8 c-17 -12 -35 -50 -31 -64
3 -7 7 -26 11 -43 6 -30 6 -30 -10 -7 -13 18 -20 20 -36 12 -11 -6 -35 -13
-53 -15 -30 -4 -35 -1 -40 21 -4 15 -6 28 -4 29 12 11 146 75 158 75 9 0 11
-3 5 -8z m145 -32 c0 -5 -5 -10 -11 -10 -5 0 -7 5 -4 10 3 6 8 10 11 10 2 0 4
-4 4 -10z m-20 -45 c0 -5 -5 -3 -10 5 -5 8 -10 20 -10 25 0 6 5 3 10 -5 5 -8
10 -19 10 -25z m138 -7 c-26 -22 -44 -23 -52 -2 -11 28 -6 39 9 20 14 -19 15
-19 15 -2 0 15 3 16 15 6 12 -10 15 -9 15 6 0 15 2 16 9 5 7 -11 3 -20 -11
-33z m-235 -7 c-6 -3 -12 -12 -14 -19 -3 -8 -9 -5 -18 9 -11 19 -11 21 3 16
11 -4 19 0 23 10 5 12 8 13 11 4 2 -7 0 -16 -5 -20z m32 19 c3 -5 1 -10 -4
-10 -6 0 -11 5 -11 10 0 6 2 10 4 10 3 0 8 -4 11 -10z m86 -14 c-10 -12 -9
-14 8 -9 15 4 21 1 21 -11 0 -9 -7 -16 -16 -16 -8 0 -13 -4 -9 -9 3 -6 -6 -6
-24 -1 -34 9 -42 5 -34 -18 8 -21 2 -15 -21 21 -18 29 -18 29 4 22 19 -6 21
-4 15 14 -7 22 10 30 18 9 3 -10 9 -8 23 4 21 20 33 15 15 -6z m59 -22 c0 -7
3 -21 6 -31 5 -15 4 -16 -5 -3 -8 11 -13 12 -18 3 -5 -6 -8 9 -9 35 -1 40 0
43 13 27 7 -11 13 -24 13 -31z m-370 0 c0 -3 -11 -16 -24 -29 -23 -23 -25 -23
-40 -6 -23 25 -22 48 1 30 14 -12 15 -12 9 0 -12 18 13 32 36 20 10 -5 18 -12
18 -15z m-100 -29 c-13 -15 -98 -40 -107 -31 -8 8 -7 9 52 33 51 22 74 21 55
-2z m-115 -45 c3 -5 1 -10 -4 -10 -6 0 -11 5 -11 10 0 6 2 10 4 10 3 0 8 -4
11 -10z m-105 -49 c0 -21 -2 -23 -10 -11 -8 13 -10 12 -11 -5 -1 -11 -2 -25
-2 -31 0 -7 -9 -9 -21 -6 -17 4 -19 2 -8 -9 14 -16 16 -39 2 -39 -5 0 -10 7
-10 16 0 13 -3 14 -15 4 -8 -6 -19 -9 -25 -5 -6 4 -17 1 -25 -5 -8 -6 -19 -9
-25 -5 -5 3 -13 0 -16 -9 -3 -8 -12 -12 -20 -9 -8 3 -14 0 -14 -6 0 -6 -7 -8
-17 -4 -10 4 -14 2 -10 -4 5 -7 0 -9 -12 -6 -11 3 -27 -4 -40 -18 -11 -13 -21
-18 -21 -11 0 6 -7 9 -15 6 -8 -4 -15 -1 -15 6 0 7 -7 10 -15 6 -9 -3 -15 0
-15 8 0 17 37 28 44 12 2 -6 5 1 5 16 1 25 -2 27 -29 24 -23 -3 -28 0 -20 9
11 13 66 31 124 41 22 3 50 10 63 15 13 5 23 7 23 5 0 -2 28 6 63 18 80 28 87
28 87 -3z m-521 -128 c-7 -10 -14 -19 -15 -21 -1 -2 -25 -6 -53 -9 -54 -5 -71
10 -23 21 15 4 43 11 62 15 19 5 37 9 39 10 2 0 -3 -7 -10 -16z m111 -33 c0
-5 -5 -10 -11 -10 -5 0 -7 5 -4 10 3 6 8 10 11 10 2 0 4 -4 4 -10z m-330 -10
c0 -5 -18 -15 -40 -21 -22 -7 -40 -18 -40 -26 0 -10 -6 -12 -21 -8 -16 5 -20
4 -15 -6 4 -8 1 -6 -8 5 -8 10 -22 16 -30 13 -9 -4 -18 -2 -21 3 -6 10 51 30
119 40 28 4 52 8 54 9 1 0 2 -3 2 -9z m-230 -40 c0 -5 -5 -10 -11 -10 -5 0 -7
5 -4 10 3 6 8 10 11 10 2 0 4 -4 4 -10z m3195 -610 c3 -5 1 -10 -4 -10 -6 0
-11 5 -11 10 0 6 2 10 4 10 3 0 8 -4 11 -10z m-3 -32 c-19 -19 -15 -24 32 -43
33 -14 45 -25 50 -45 3 -15 12 -35 22 -44 13 -14 14 -19 3 -33 -13 -14 -10
-15 19 -11 17 2 32 0 32 -5 0 -9 12 -7 55 8 15 5 17 5 5 -3 -12 -9 -12 -14 4
-31 10 -11 25 -17 34 -14 13 4 14 2 4 -4 -10 -8 -10 -12 2 -22 8 -7 12 -19 9
-27 -3 -8 1 -14 8 -14 11 0 11 -3 -1 -11 -11 -8 -12 -12 -2 -16 6 -2 12 -13
12 -23 0 -10 8 -20 18 -22 12 -2 13 -6 5 -11 -7 -5 -20 0 -31 11 -20 20 -52
35 -52 25 0 -3 8 -12 18 -19 15 -11 12 -12 -20 -9 -24 2 -37 -1 -35 -9 1 -6
-6 -10 -15 -10 -10 1 -18 -2 -18 -8 0 -5 -4 -7 -9 -4 -5 3 -11 -1 -15 -9 -3
-8 -14 -15 -24 -15 -10 0 -27 -9 -37 -20 -20 -22 -35 -18 -35 10 0 10 -4 21
-9 24 -5 4 -7 -3 -4 -14 3 -11 0 -20 -6 -20 -19 0 -17 50 2 63 8 5 4 7 -8 5
-12 -2 -20 3 -20 12 0 8 7 14 15 12 11 -3 11 1 -3 16 -22 24 -22 44 3 65 24
20 28 62 5 54 -8 -4 -17 -2 -20 3 -3 5 4 11 15 15 30 9 24 65 -7 65 -9 0 -13
-6 -9 -15 3 -8 1 -15 -4 -15 -6 0 -10 5 -10 10 0 6 -9 10 -20 10 -11 0 -20 5
-20 11 0 6 7 9 15 5 8 -3 15 -1 15 4 0 6 -6 10 -14 10 -20 0 -28 28 -10 38 9
5 15 12 15 15 -3 20 1 28 21 47 23 21 40 28 20 8z m-58 -52 c-3 -9 -10 -16
-15 -16 -5 0 -4 9 3 20 14 22 21 20 12 -4z m714 -141 c-3 -3 -9 2 -12 12 -6
14 -5 15 5 6 7 -7 10 -15 7 -18z m-261 -37 c-3 -8 -6 -5 -6 6 -1 11 2 17 5 13
3 -3 4 -12 1 -19z m323 2 c0 -5 -2 -10 -4 -10 -3 0 -8 5 -11 10 -3 6 -1 10 4
10 6 0 11 -4 11 -10z m-290 -40 c0 -5 -4 -10 -10 -10 -5 0 -10 5 -10 10 0 6 5
10 10 10 6 0 10 -4 10 -10z m-153 -138 c-10 -21 -13 -23 -15 -8 -3 12 -10 16
-22 13 -11 -3 -17 0 -14 7 2 6 17 11 33 12 28 1 29 0 18 -24z m-6047 -18 c0
-7 -11 -14 -25 -16 -29 -6 -32 7 -8 34 13 14 18 16 25 6 4 -7 8 -18 8 -24z
m5957 -20 c-3 -3 -12 -4 -19 -1 -8 3 -5 6 6 6 11 1 17 -2 13 -5z m91 -26 c14
-14 16 -32 3 -23 -5 3 -12 1 -16 -5 -3 -5 -1 -10 6 -10 10 0 10 -3 1 -12 -10
-10 -15 -10 -21 0 -5 8 -11 13 -15 13 -16 -1 -36 13 -36 25 0 12 4 12 20 4 16
-9 18 -8 14 5 -7 18 26 21 44 3z m-108 -19 c0 -4 -11 -10 -24 -13 -29 -7 -64
3 -46 14 14 9 70 9 70 -1z m35 -43 c-6 -19 -5 -20 6 -2 10 17 13 16 27 -14 10
-20 18 -28 20 -20 3 8 0 16 -6 18 -7 2 -12 8 -12 14 0 7 4 7 13 1 17 -14 47
-24 46 -15 -4 21 3 31 17 25 8 -3 13 -12 10 -19 -3 -8 -3 -14 0 -14 2 0 8 10
13 23 8 21 9 20 24 -16 12 -27 14 -45 7 -62 -12 -30 -20 -33 -13 -4 5 19 4 20
-17 7 -18 -10 -24 -10 -27 0 -3 6 -18 12 -34 12 -17 0 -39 5 -50 10 -13 7 -19
7 -19 0 0 -5 -7 -10 -16 -10 -8 0 -12 -5 -9 -10 5 -8 11 -7 21 1 14 12 34 -1
48 -31 3 -9 4 -5 2 8 -4 22 8 30 19 12 3 -5 12 -7 20 -3 10 3 15 -1 15 -12 0
-10 4 -13 13 -8 6 4 4 -5 -6 -21 -10 -15 -16 -34 -13 -41 2 -7 -2 -16 -10 -19
-9 -3 -13 -10 -9 -15 3 -6 -6 -18 -20 -27 -22 -14 -30 -15 -53 -4 -15 6 -28
11 -30 10 -2 -1 -14 11 -28 27 -17 20 -24 24 -24 12 0 -9 12 -24 26 -34 21
-13 24 -19 13 -26 -10 -6 -20 2 -36 29 -17 27 -19 38 -10 44 9 6 9 10 -1 20
-6 6 -12 17 -12 23 0 5 7 2 14 -8 13 -16 15 -16 37 3 19 15 21 19 7 20 -9 0
-18 -6 -20 -12 -3 -9 -10 -7 -24 7 -16 16 -17 18 -2 12 10 -3 20 -2 23 3 4 6
1 10 -5 10 -7 0 -10 7 -6 15 3 8 -2 22 -11 30 -8 9 -12 19 -9 23 4 3 11 1 15
-7 7 -11 12 -10 30 1 12 7 21 20 20 28 -3 31 1 39 16 34 10 -4 14 -14 10 -28z
m-58 5 c10 9 13 7 13 -10 0 -18 -4 -20 -25 -15 -20 5 -26 1 -34 -19 -5 -14
-15 -28 -21 -32 -9 -6 -9 -2 -1 14 7 11 8 21 4 21 -4 0 1 7 11 15 11 8 16 15
12 15 -4 0 -4 5 0 11 4 8 9 8 17 0 7 -7 14 -7 24 0z m-38 -214 c-31 -22 -59
-35 -59 -27 0 6 10 15 23 20 21 8 45 13 36 7z m116 -57 c3 -5 1 -10 -4 -10 -6
0 -11 5 -11 10 0 6 2 10 4 10 3 0 8 -4 11 -10z m-25 -10 c0 -5 -2 -10 -4 -10
-3 0 -8 5 -11 10 -3 6 -1 10 4 10 6 0 11 -4 11 -10z"/>
<path d="M4436 8331 c-4 -5 3 -7 14 -4 23 6 26 13 6 13 -8 0 -17 -4 -20 -9z"/>
<path d="M4490 8330 c0 -5 7 -7 15 -4 8 4 15 8 15 10 0 2 -7 4 -15 4 -8 0 -15
-4 -15 -10z"/>
<path d="M4925 8270 c-3 -5 1 -10 9 -10 9 0 16 5 16 10 0 6 -4 10 -9 10 -6 0
-13 -4 -16 -10z"/>
<path d="M3625 8160 c-3 -5 -2 -10 4 -10 5 0 13 5 16 10 3 6 2 10 -4 10 -5 0
-13 -4 -16 -10z"/>
<path d="M5135 8140 c3 -5 8 -10 11 -10 2 0 4 5 4 10 0 6 -5 10 -11 10 -5 0
-7 -4 -4 -10z"/>
<path d="M5308 8073 c6 -2 18 -2 25 0 6 3 1 5 -13 5 -14 0 -19 -2 -12 -5z"/>
<path d="M3640 8010 c0 -5 5 -10 11 -10 5 0 7 5 4 10 -3 6 -8 10 -11 10 -2 0
-4 -4 -4 -10z"/>
<path d="M5340 8005 c-14 -8 -20 -14 -14 -15 5 0 19 7 30 15 24 18 16 19 -16
0z"/>
<path d="M3670 7910 c0 -5 5 -10 10 -10 6 0 10 5 10 10 0 6 -4 10 -10 10 -5 0
-10 -4 -10 -10z"/>
<path d="M3642 7525 c3 -29 19 -32 39 -9 12 15 11 16 -9 10 -17 -6 -21 -4 -16
8 3 9 1 16 -5 16 -6 0 -10 -11 -9 -25z"/>
<path d="M3610 7480 c0 -5 5 -10 10 -10 6 0 10 5 10 10 0 6 -4 10 -10 10 -5 0
-10 -4 -10 -10z"/>
<path d="M3650 7459 c0 -5 5 -7 10 -4 6 3 10 8 10 11 0 2 -4 4 -10 4 -5 0 -10
-5 -10 -11z"/>
<path d="M1312 7800 c0 -14 2 -19 5 -12 2 6 2 18 0 25 -3 6 -5 1 -5 -13z"/>
<path d="M5545 6380 c-4 -6 3 -10 14 -10 25 0 27 6 6 13 -8 4 -17 2 -20 -3z"/>
<path d="M5671 6214 c0 -11 3 -14 6 -6 3 7 2 16 -1 19 -3 4 -6 -2 -5 -13z"/>
<path d="M4017 6723 c-14 -13 -6 -33 13 -33 22 0 23 1 14 24 -7 17 -16 20 -27
9z"/>
<path d="M4195 6670 c-4 -7 -16 -9 -28 -6 -24 6 -77 -3 -77 -14 0 -11 91 -17
97 -7 3 5 10 4 16 -2 17 -17 24 -13 22 11 -2 25 -20 35 -30 18z"/>
<path d="M6350 6370 c0 -5 5 -10 10 -10 6 0 10 5 10 10 0 6 -4 10 -10 10 -5 0
-10 -4 -10 -10z"/>
<path d="M6285 6300 c3 -5 8 -10 11 -10 2 0 4 5 4 10 0 6 -5 10 -11 10 -5 0
-7 -4 -4 -10z"/>
<path d="M6273 6244 c-15 -31 -7 -54 18 -54 26 0 24 18 -3 22 -20 3 -21 4 -5
20 18 17 23 38 10 38 -5 0 -13 -12 -20 -26z"/>
<path d="M6080 6250 c20 -13 33 -13 25 0 -3 6 -14 10 -23 10 -15 0 -15 -2 -2
-10z"/>
<path d="M4624 6209 c-3 -6 -2 -15 3 -20 5 -5 9 -1 9 11 0 23 -2 24 -12 9z"/>
<path d="M4700 6096 c0 -2 7 -7 16 -10 8 -3 12 -2 9 4 -6 10 -25 14 -25 6z"/>
<path d="M4607 6073 c-10 -10 -8 -33 3 -33 5 0 14 9 20 20 8 15 8 20 -3 20 -8
0 -17 -3 -20 -7z"/>
<path d="M4701 6054 c0 -11 3 -14 6 -6 3 7 2 16 -1 19 -3 4 -6 -2 -5 -13z"/>
<path d="M4460 6042 c0 -5 7 -9 15 -9 8 0 12 4 9 9 -3 4 -9 8 -15 8 -5 0 -9
-4 -9 -8z"/>
<path d="M4390 5980 c0 -5 9 -10 20 -10 11 0 20 5 20 10 0 6 -9 10 -20 10 -11
0 -20 -4 -20 -10z"/>
<path d="M4492 5899 c2 -6 8 -10 13 -10 5 0 11 4 13 10 2 6 -4 11 -13 11 -9 0
-15 -5 -13 -11z"/>
<path d="M4247 5658 c-15 -19 -15 -24 -3 -36 8 -8 19 -11 25 -8 17 11 13 26
-6 26 -17 1 -17 1 0 11 9 5 17 14 17 19 0 16 -14 11 -33 -12z"/>
<path d="M4200 5609 c0 -5 5 -7 10 -4 6 3 10 8 10 11 0 2 -4 4 -10 4 -5 0 -10
-5 -10 -11z"/>
<path d="M4170 5590 c0 -5 5 -10 10 -10 6 0 10 5 10 10 0 6 -4 10 -10 10 -5 0
-10 -4 -10 -10z"/>
<path d="M4710 5765 c-8 -9 -8 -15 -2 -15 12 0 26 19 19 26 -2 2 -10 -2 -17
-11z"/>
<path d="M4690 5710 c0 -5 5 -10 10 -10 6 0 10 5 10 10 0 6 -4 10 -10 10 -5 0
-10 -4 -10 -10z"/>
<path d="M4680 5669 c0 -5 5 -7 10 -4 6 3 10 8 10 11 0 2 -4 4 -10 4 -5 0 -10
-5 -10 -11z"/>
<path d="M5710 4610 c0 -5 -3 -9 -7 -9 -27 4 -33 -2 -23 -22 9 -16 14 -18 26
-8 8 6 12 14 9 17 -3 3 0 11 6 19 9 9 8 13 0 13 -6 0 -11 -4 -11 -10z"/>
<path d="M5740 4610 c0 -5 5 -10 11 -10 5 0 7 5 4 10 -3 6 -8 10 -11 10 -2 0
-4 -4 -4 -10z"/>
<path d="M5746 4581 c-12 -5 -15 -10 -9 -14 6 -4 16 0 23 8 14 17 13 17 -14 6z"/>
<path d="M5610 4526 c0 -9 7 -12 20 -9 31 8 34 23 6 23 -16 0 -26 -6 -26 -14z"/>
<path d="M5630 4490 c0 -5 5 -10 10 -10 6 0 10 5 10 10 0 6 -4 10 -10 10 -5 0
-10 -4 -10 -10z"/>
<path d="M6000 2665 c0 -8 5 -15 10 -15 6 0 10 7 10 15 0 8 -4 15 -10 15 -5 0
-10 -7 -10 -15z"/>
<path d="M8368 1713 c-10 -2 -18 -8 -18 -13 0 -14 18 -21 25 -10 3 5 11 10 17
10 6 0 3 -9 -7 -20 -10 -11 -15 -20 -10 -20 13 0 33 33 28 47 -5 13 -7 14 -35
6z"/>
<path d="M8535 1540 c-3 -5 -1 -10 4 -10 6 0 11 5 11 10 0 6 -2 10 -4 10 -3 0
-8 -4 -11 -10z"/>
<path d="M8510 1200 c-9 -6 -10 -10 -3 -10 6 0 15 5 18 10 8 12 4 12 -15 0z"/>
<path d="M8533 1170 c-1 -12 -12 -30 -25 -40 l-23 -20 33 2 c19 1 32 8 32 16
0 9 7 11 21 7 15 -5 19 -4 14 5 -4 6 -16 9 -27 7 -17 -5 -19 -2 -14 19 4 13 3
24 -2 24 -4 0 -8 -9 -9 -20z"/>
<path d="M8492 1156 c-6 -15 -17 -24 -22 -21 -11 7 -14 -8 -4 -17 10 -10 45
32 42 50 -2 11 -7 8 -16 -12z"/>
<path d="M8570 1170 c0 -5 5 -10 10 -10 6 0 10 5 10 10 0 6 -4 10 -10 10 -5 0
-10 -4 -10 -10z"/>
<path d="M8555 1110 c-7 -12 2 -30 16 -30 12 0 12 27 0 35 -5 3 -12 1 -16 -5z"/>
<path d="M8510 1096 c0 -2 7 -9 15 -16 13 -11 14 -10 9 4 -5 14 -24 23 -24 12z"/>
<path d="M10380 3150 c0 -5 5 -10 10 -10 6 0 10 5 10 10 0 6 -4 10 -10 10 -5
0 -10 -4 -10 -10z"/>
<path d="M10615 3079 c-4 -6 -5 -12 -2 -15 2 -3 7 2 10 11 7 17 1 20 -8 4z"/>
<path d="M10190 2826 c0 -2 8 -10 18 -17 15 -13 16 -12 3 4 -13 16 -21 21 -21
13z"/>
</g>
</svg>
